<?xml version="1.0" encoding="utf-8"?>
<svg viewBox="0 0 2400 2400" xmlns="http://www.w3.org/2000/svg" xmlns:bx="https://boxy-svg.com">
  <defs>
    <bx:grid x="7.722" y="48.117" width="100" height="100"/>
  </defs>
  <rect style="stroke: rgb(0, 0, 0); fill: rgb(38, 38, 38);" x="0" y="0" width="2400" height="2400" rx="240" ry="240"/>
  <path d="M 1356.702 1536.599 L 1206.268 1873.825 C 1180.359 1930.657 1159.465 1968.891 1143.588 1988.532 C 1127.706 2008.172 1110.156 2017.991 1090.934 2017.991 C 1072.548 2017.991 1056.249 2010.053 1042.043 1994.172 C 1032.849 1984.143 1011.746 1947.372 978.734 1883.854 C 945.722 1820.337 918.351 1763.925 896.623 1714.614 L 731.144 1342.287 C 708.577 1290.471 684.759 1264.561 659.686 1264.561 C 632.941 1264.561 618.317 1286.709 615.81 1331.004 C 609.959 1429.622 607.034 1520.721 607.034 1604.294 C 607.034 1691.214 611.212 1750.134 619.572 1781.056 C 625.419 1799.443 633.151 1812.816 642.762 1821.172 C 652.372 1829.53 678.49 1844.574 721.115 1866.303 C 748.694 1880.511 762.485 1905.164 762.485 1940.268 C 762.485 2033.872 642.553 2080.673 402.694 2080.673 C 200.44 2080.673 99.315 2035.125 99.315 1944.027 C 99.315 1920.628 104.538 1903.703 114.985 1893.257 C 125.431 1882.81 152.385 1867.139 195.845 1846.246 C 223.424 1833.708 242.02 1816.578 251.631 1794.846 C 261.242 1773.117 269.39 1730.911 276.077 1668.23 C 283.598 1601.371 290.702 1491.678 297.389 1339.151 C 304.074 1186.628 307.418 1056.042 307.418 947.394 C 307.418 811.168 296.97 718.816 276.077 670.343 C 268.555 653.627 259.987 641.092 250.378 632.733 C 240.766 624.377 222.588 613.511 195.845 600.139 C 136.504 571.724 106.836 534.951 106.836 489.82 C 106.836 460.569 117.91 433.826 140.058 409.587 C 162.204 385.351 191.665 368.218 228.437 358.189 C 265.211 347.326 314.313 337.922 375.74 329.983 C 437.168 322.043 489.193 318.073 531.816 318.073 C 638.793 318.073 714.427 326.848 758.723 344.398 C 780.452 352.758 797.585 364.039 810.122 378.247 C 822.659 392.456 840.627 421.707 864.028 466.001 L 1124.783 946.14 C 1153.197 998.793 1172.838 1030.969 1183.702 1042.669 C 1194.567 1054.371 1209.61 1060.221 1228.832 1060.221 C 1245.548 1060.221 1260.382 1053.952 1273.338 1041.417 C 1286.29 1028.88 1301.543 1005.479 1319.094 971.213 L 1495.856 626.465 C 1517.585 582.17 1531.792 553.338 1538.478 539.964 C 1579.431 456.39 1619.966 400.812 1660.081 373.234 C 1711.061 337.296 1803.83 319.327 1938.387 319.327 C 2174.904 319.327 2293.163 373.234 2293.163 481.044 C 2293.163 505.283 2288.567 524.713 2279.374 539.338 C 2270.18 553.965 2251.374 571.724 2222.959 592.616 C 2184.514 621.869 2160.279 664.073 2150.25 719.234 C 2131.026 834.568 2121.416 974.973 2121.416 1140.452 C 2121.416 1353.57 2131.445 1540.359 2151.503 1700.825 C 2156.518 1740.105 2164.246 1766.847 2174.695 1781.056 C 2185.141 1795.266 2212.094 1816.578 2255.554 1844.991 C 2285.641 1865.05 2300.685 1891.794 2300.685 1925.223 C 2300.685 1983.725 2261.822 2025.095 2184.097 2049.333 C 2143.981 2062.705 2101.776 2071.48 2057.48 2075.659 C 2013.185 2079.838 1945.072 2081.926 1853.14 2081.926 C 1711.897 2081.926 1606.593 2071.898 1537.226 2051.839 C 1460.335 2029.274 1421.893 1990.83 1421.893 1936.506 C 1421.893 1916.447 1426.906 1899.943 1436.935 1886.987 C 1446.964 1874.034 1472.872 1850.425 1514.66 1816.159 C 1536.389 1798.606 1551.224 1764.759 1559.165 1714.614 C 1567.103 1664.468 1571.073 1579.222 1571.073 1458.873 C 1571.073 1392.014 1567.939 1348.138 1561.672 1327.243 C 1555.403 1306.351 1542.24 1295.902 1522.181 1295.902 C 1498.78 1295.902 1476.216 1311.992 1454.487 1344.167 C 1432.756 1376.344 1400.161 1440.488 1356.702 1536.599 Z" style="fill: rgb(239, 68, 68);"/>
</svg>