<?xml version="1.0" encoding="utf-8"?>
<svg viewBox="400 0 1756 1407" width="1756" height="1407" xmlns="http://www.w3.org/2000/svg">
  <path d="M 1403 972 L 1283 1241 C 1262.333 1286.334 1245.666 1316.834 1233 1332.5 C 1220.333 1348.167 1206.333 1356 1191 1356 C 1176.333 1356 1163.333 1349.667 1152 1337 C 1144.666 1329 1127.833 1299.667 1101.5 1249 C 1075.166 1198.334 1053.333 1153.334 1036 1114 L 904 817 C 886 775.667 867 755 847 755 C 825.666 755 814 772.667 812 808 C 807.333 886.667 805 959.334 805 1026 C 805 1095.334 808.333 1142.334 815 1167 C 819.666 1181.667 825.833 1192.334 833.5 1199 C 841.166 1205.667 862 1217.667 896 1235 C 918 1246.334 929 1266 929 1294 C 929 1368.667 833.333 1406 642 1406 C 480.666 1406 400 1369.667 400 1297 C 400 1278.334 404.166 1264.834 412.5 1256.5 C 420.833 1248.167 442.333 1235.667 477 1219 C 499 1209 513.833 1195.334 521.5 1178 C 529.166 1160.667 535.666 1127 541 1077 C 547 1023.667 552.666 936.167 558 814.5 C 563.333 692.834 566 588.667 566 502 C 566 393.334 557.666 319.667 541 281 C 535 267.667 528.166 257.667 520.5 251 C 512.833 244.334 498.333 235.667 477 225 C 429.666 202.334 406 173 406 137 C 406 113.667 414.833 92.334 432.5 73 C 450.166 53.667 473.666 40 503 32 C 532.333 23.334 571.5 15.834 620.5 9.5 C 669.5 3.167 711 0 745 0 C 830.333 0 890.666 7 926 21 C 943.333 27.667 957 36.667 967 48 C 977 59.334 991.333 82.667 1010 118 L 1218 501 C 1240.666 543 1256.333 568.667 1265 578 C 1273.666 587.334 1285.666 592 1301 592 C 1314.333 592 1326.166 587 1336.5 577 C 1346.833 567 1359 548.334 1373 521 L 1514 246 C 1531.333 210.667 1542.666 187.667 1548 177 C 1580.666 110.334 1613 66 1645 44 C 1685.666 15.334 1759.666 1 1867 1 C 2055.666 1 2150 44 2150 130 C 2150 149.334 2146.333 164.834 2139 176.5 C 2131.666 188.167 2116.666 202.334 2094 219 C 2063.333 242.334 2044 276 2036 320 C 2020.666 412 2013 524 2013 656 C 2013 826 2021 975 2037 1103 C 2041 1134.334 2047.166 1155.667 2055.5 1167 C 2063.833 1178.334 2085.333 1195.334 2120 1218 C 2144 1234 2156 1255.334 2156 1282 C 2156 1328.667 2125 1361.667 2063 1381 C 2031 1391.667 1997.333 1398.667 1962 1402 C 1926.666 1405.334 1872.333 1407 1799 1407 C 1686.333 1407 1602.333 1399 1547 1383 C 1485.666 1365 1455 1334.334 1455 1291 C 1455 1275 1459 1261.834 1467 1251.5 C 1475 1241.167 1495.666 1222.334 1529 1195 C 1546.333 1181 1558.166 1154 1564.5 1114 C 1570.833 1074 1574 1006 1574 910 C 1574 856.667 1571.5 821.667 1566.5 805 C 1561.5 788.334 1551 780 1535 780 C 1516.333 780 1498.333 792.834 1481 818.5 C 1463.666 844.167 1437.666 895.334 1403 972 Z" style="fill: rgb(248, 113, 113);"/>
</svg>